<?xml version="1.0" standalone="no"?>
<!DOCTYPE svg PUBLIC "-//W3C//DTD SVG 20010904//EN"
 "http://www.w3.org/TR/2001/REC-SVG-20010904/DTD/svg10.dtd">
<svg version="1.0" xmlns="http://www.w3.org/2000/svg"
 width="600.000000pt" height="337.000000pt" viewBox="0 0 600.000000 337.000000"
 preserveAspectRatio="xMidYMid meet">
<metadata>
Created by potrace 1.16, written by Peter Selinger 2001-2019
</metadata>
<g transform="translate(0.000000,337.000000) scale(0.100000,-0.100000)"
fill="#000000" stroke="none">
<path d="M1174 2955 c-42 -19 -91 -76 -103 -122 -7 -23 -11 -171 -11 -375 l0
-338 -71 0 c-64 0 -78 -4 -128 -34 -85 -52 -211 -113 -303 -147 -93 -34 -308
-89 -350 -89 -14 0 -34 -8 -44 -17 -15 -15 -16 -32 -10 -148 38 -705 263
-1166 691 -1410 74 -42 85 -45 151 -45 68 0 72 -1 78 -24 3 -14 18 -38 32 -55
l25 -30 -163 -3 c-137 -3 -163 -5 -163 -18 0 -13 240 -15 2088 -18 2082 -2
2087 -2 2087 18 0 17 -7 20 -41 20 l-41 0 30 25 c16 13 40 49 53 79 l24 55 80
3 80 3 -1 40 c0 22 -4 61 -9 86 -7 42 -5 47 14 52 26 6 29 56 6 110 -8 20 -15
54 -15 76 0 23 -8 48 -19 62 l-19 24 -31 -29 c-19 -19 -35 -26 -40 -20 -14 14
-17 117 -3 141 11 20 9 23 -35 44 -90 40 -278 100 -388 123 -107 23 -113 26
-220 101 -348 244 -560 312 -1040 333 l-150 7 -5 711 -5 711 -28 36 c-55 72
-76 77 -342 77 l-235 0 0 -100 0 -100 177 0 c139 0 180 -3 192 -14 14 -13 16
-132 11 -1238 l-5 -1223 -844 -3 c-615 -1 -847 1 -857 9 -24 20 -15 46 24 75
117 89 228 221 307 367 26 48 51 87 56 87 5 0 15 -11 21 -25 9 -20 7 -34 -16
-83 -26 -60 -31 -88 -20 -129 18 -65 64 20 64 116 0 53 3 62 27 81 57 45 68
14 36 -98 -18 -63 -9 -79 21 -38 11 16 31 41 43 55 l23 26 -6 -32 c-8 -43 13
-44 59 -3 39 34 47 36 47 15 0 -21 9 -19 59 15 52 35 60 36 94 10 27 -22 72
-27 83 -9 4 7 -2 10 -18 8 -13 -2 -38 6 -55 19 -39 28 -49 28 -98 -2 -36 -22
-40 -23 -51 -8 -11 15 -16 14 -53 -16 -46 -37 -56 -40 -41 -13 12 24 13 61 1
61 -5 0 -25 -18 -45 -40 l-36 -40 7 60 c5 52 3 60 -12 67 -11 4 -34 -2 -57
-14 -37 -21 -38 -21 -38 -2 0 10 -8 24 -19 30 -18 12 -17 15 12 86 l29 73 527
0 c289 0 532 4 539 9 8 5 12 17 10 27 -3 18 -24 19 -532 22 -482 2 -528 4
-522 18 4 9 11 36 17 60 l11 44 512 2 c491 3 511 4 514 22 2 10 -2 22 -10 27
-7 5 -236 9 -509 9 l-495 0 11 58 12 57 496 3 497 2 0 25 0 25 -492 2 -493 3
3 25 c1 14 5 40 8 58 l5 32 462 0 c254 0 472 3 485 6 16 5 22 13 20 28 -3 21
-3 21 -483 26 -264 3 -479 8 -477 13 1 4 2 29 2 57 l0 50 478 2 477 3 0 25 0
25 -477 3 -477 2 -3 32 c-3 36 0 34 -158 68 -121 26 -252 67 -350 112 l-70 31
0 361 c0 209 4 367 10 376 8 12 43 16 195 18 l185 3 0 100 0 99 -222 -1 c-164
0 -231 -4 -254 -14z m357 -1466 c62 -52 65 -98 9 -149 -40 -37 -119 -138 -112
-144 4 -4 2 -6 -4 -4 -9 2 -63 -56 -145 -157 -9 -11 -42 -50 -72 -86 -31 -37
-53 -70 -49 -75 4 -4 1 -4 -5 0 -7 4 -13 3 -13 -2 0 -4 -16 -27 -35 -49 -19
-22 -31 -44 -27 -48 4 -3 0 -5 -8 -3 -8 2 -15 -4 -14 -12 1 -12 -12 -16 -57
-18 l-57 -3 -64 93 c-36 51 -91 131 -124 176 -108 152 -113 162 -103 191 13
37 117 101 162 101 20 0 39 -5 42 -10 4 -6 12 -7 18 -4 7 4 9 4 5 -1 -11 -11
11 -47 24 -39 7 4 8 3 4 -5 -4 -6 6 -28 23 -50 17 -21 31 -44 31 -50 0 -6 12
-18 26 -28 24 -15 28 -15 38 -1 6 8 36 43 66 78 30 34 59 70 64 79 6 9 24 32
42 51 17 19 64 73 103 120 103 123 135 130 232 49z m2587 -658 c98 -11 158
-23 167 -32 7 -8 27 -38 44 -67 23 -39 27 -54 18 -58 -11 -4 -408 62 -413 69
-9 11 -44 89 -44 97 0 14 49 12 228 -9z m700 -93 c3 -15 -4 -18 -47 -18 -27 0
-53 5 -56 10 -12 20 8 31 53 28 35 -2 48 -7 50 -20z m-3133 -94 c-3 -24 -10
-44 -16 -44 -13 0 -11 51 3 91 15 43 23 17 13 -47z m1914 -30 c60 -36 91 -109
91 -219 0 -123 -60 -215 -141 -215 -106 0 -178 166 -135 313 33 112 112 164
185 121z m921 -347 c0 -20 39 -89 68 -119 l26 -28 -428 0 -428 0 32 36 c18 21
40 57 51 80 l18 44 331 0 c259 0 330 -3 330 -13z m-1120 -66 c0 -5 15 -26 34
-45 l33 -36 -74 0 -75 0 31 35 c17 20 31 40 31 45 0 6 5 10 10 10 6 0 10 -4
10 -9z"/>
<path d="M3554 546 c-10 -26 4 -48 28 -44 17 2 23 10 23 28 0 18 -6 26 -23 28
-13 2 -25 -3 -28 -12z"/>
<path d="M3495 478 c-9 -23 -10 -37 -3 -46 17 -20 38 5 38 44 0 43 -17 44 -35
2z"/>
<path d="M3630 483 c0 -32 24 -72 36 -60 11 10 -8 80 -23 85 -9 2 -13 -7 -13
-25z"/>
<path d="M3490 356 c0 -35 10 -56 26 -56 14 0 19 36 8 64 -10 25 -34 19 -34
-8z"/>
<path d="M3636 364 c-11 -28 -6 -64 8 -64 11 0 26 40 26 71 0 15 -28 10 -34
-7z"/>
<path d="M3555 290 c-8 -26 6 -43 31 -38 13 2 19 12 19 28 0 34 -40 41 -50 10z"/>
<path d="M1990 2500 c8 -5 20 -10 25 -10 6 0 3 5 -5 10 -8 5 -19 10 -25 10 -5
0 -3 -5 5 -10z"/>
<path d="M2330 2389 c0 -5 -5 -7 -12 -3 -7 4 -8 3 -4 -4 4 -6 13 -9 21 -6 8 4
12 10 9 15 -7 12 -14 11 -14 -2z"/>
<path d="M1923 2223 c0 -15 3 -15 32 -4 18 7 17 8 -6 13 -17 3 -26 0 -26 -9z"/>
<path d="M2270 2230 c-21 -7 -21 -8 -5 -9 11 0 27 4 35 9 18 11 5 11 -30 0z"/>
<path d="M1738 2088 c-21 -7 -28 -16 -28 -35 0 -19 8 -28 40 -40 22 -9 40 -20
40 -24 0 -15 -22 -21 -33 -10 -16 16 -47 14 -47 -4 0 -41 104 -43 119 -2 12
31 -3 53 -44 67 -19 6 -35 16 -35 21 0 13 24 11 37 -2 7 -7 20 -9 29 -5 15 6
16 9 3 20 -21 20 -51 25 -81 14z"/>
<path d="M2554 2093 c-59 -11 -73 -98 -22 -136 22 -17 33 -18 60 -11 19 6 34
17 36 28 3 16 -1 17 -36 11 -35 -6 -41 -4 -47 14 -15 48 13 73 56 51 15 -9 21
-7 25 5 11 27 -27 47 -72 38z"/>
<path d="M1470 2020 c0 -63 2 -70 20 -70 18 0 20 7 20 70 0 63 -2 70 -20 70
-18 0 -20 -7 -20 -70z"/>
<path d="M1544 2076 c-3 -7 -4 -38 -2 -67 2 -41 7 -55 20 -57 13 -2 17 5 20
35 l3 38 25 -37 c16 -25 33 -38 48 -38 21 0 22 4 22 70 0 63 -2 70 -20 70 -16
0 -20 -7 -20 -37 l0 -38 -27 38 c-26 37 -59 49 -69 23z"/>
<path d="M1859 2078 c-5 -65 2 -104 22 -120 30 -25 66 -22 95 7 21 21 25 33
22 73 -3 39 -6 47 -23 47 -17 0 -20 -8 -23 -53 -3 -48 -5 -53 -25 -50 -18 2
-23 11 -27 53 -4 37 -9 51 -22 53 -10 2 -18 -2 -19 -10z"/>
<path d="M2024 2076 c-3 -7 -4 -38 -2 -67 3 -46 6 -54 23 -54 14 0 21 9 26 30
l5 30 20 -32 c12 -22 27 -33 42 -33 26 0 27 8 6 38 -14 20 -14 24 0 38 19 18
19 20 6 45 -9 15 -22 19 -66 19 -37 0 -56 -4 -60 -14z m86 -27 c0 -12 -29 -24
-37 -16 -3 4 -3 13 0 21 6 16 37 11 37 -5z"/>
<path d="M2209 2063 c-17 -43 -39 -105 -39 -109 0 -9 39 -3 45 6 3 6 17 10 30
10 13 0 27 -4 30 -10 3 -5 15 -10 26 -10 22 0 22 5 -11 90 -14 36 -23 46 -44
48 -21 3 -28 -2 -37 -25z m50 -55 c1 -5 -6 -8 -14 -8 -16 0 -19 9 -8 36 6 16
7 16 14 -2 4 -10 8 -22 8 -26z"/>
<path d="M2338 2058 c-6 -66 3 -108 23 -108 15 0 19 7 19 37 l0 38 26 -38 c18
-28 31 -37 47 -35 20 3 22 10 25 66 2 50 0 63 -13 68 -22 9 -28 0 -27 -38 l0
-33 -31 38 c-40 47 -65 49 -69 5z"/>
<path d="M2660 2020 l0 -70 60 0 c47 0 60 3 60 15 0 11 -11 15 -41 15 -49 0
-49 22 0 30 42 7 44 24 4 28 -42 4 -43 20 -1 24 17 2 33 9 36 16 3 9 -13 12
-57 12 l-61 0 0 -70z"/>
<path d="M2610 758 c-14 -11 -37 -30 -52 -43 -23 -21 -28 -22 -39 -9 -31 38
-81 40 -76 3 4 -24 56 -79 74 -79 8 0 11 -4 8 -10 -3 -5 -2 -10 4 -10 5 0 39
29 75 65 44 42 64 69 60 80 -3 8 -10 13 -14 10 -5 -3 -10 -1 -12 4 -1 5 -14 0
-28 -11z m-110 -74 c0 -8 -19 -13 -24 -6 -3 5 1 9 9 9 8 0 15 -2 15 -3z"/>
<path d="M595 110 c-12 -20 7 -30 61 -30 47 0 54 2 54 20 0 18 -7 20 -54 20
-30 0 -58 -4 -61 -10z"/>
<path d="M5087 113 c-4 -3 -7 -12 -7 -20 0 -9 16 -13 55 -13 48 0 55 2 55 20
0 17 -7 20 -48 20 -27 0 -52 -3 -55 -7z"/>
</g>
</svg>
